<svg width="32" height="32" viewBox="0 0 32 32" fill="none" xmlns="http://www.w3.org/2000/svg">
<rect width="32" height="32" rx="6" fill="#FAFF33"/>
<path d="M6.51465 6.07812L4 -9.63102e-07L7.7998 -7.97007e-07L10.3145 6.07812L6.51465 6.07812ZM23.5186 6.07812L19.7187 6.07812L22.2334 -1.66095e-07L26.0332 0L23.5186 6.07812Z" fill="#2B00F7"/>
<path d="M13.1176 22.0325L9.34516 12.9134L7.77289 9.11552L7.20648 7.74931L7.20648 7.75127L6.51508 6.07841L23.518 6.07841L22.2602 9.11748L20.6879 12.9153L18.8149 17.4427L32.0004 17.4427L32.0004 22.0325L13.1176 22.0325ZM11.8862 9.87627L13.143 12.9153L15.017 17.4427L16.8911 12.9153L18.1469 9.87627L11.8862 9.87627Z" fill="#2E2E2E"/>
</svg>
